<?xml version="1.0" encoding="UTF-8" standalone="no"?>
<!-- Created with Inkscape (http://www.inkscape.org/) -->

<svg
   xmlns:dc="http://purl.org/dc/elements/1.1/"
   xmlns:cc="http://creativecommons.org/ns#"
   xmlns:rdf="http://www.w3.org/1999/02/22-rdf-syntax-ns#"
   xmlns:svg="http://www.w3.org/2000/svg"
   xmlns="http://www.w3.org/2000/svg"
   xmlns:xlink="http://www.w3.org/1999/xlink"
   xmlns:sodipodi="http://sodipodi.sourceforge.net/DTD/sodipodi-0.dtd"
   xmlns:inkscape="http://www.inkscape.org/namespaces/inkscape"
   sodipodi:docname="nicubunu_Insecticide_1.svg"
   inkscape:version="0.48.0 r9654"
   id="svg559"
   height="128"
   width="128"
   version="1.0">
  <sodipodi:namedview
     pagecolor="#ffffff"
     bordercolor="#666666"
     borderopacity="1"
     objecttolerance="10"
     gridtolerance="10"
     guidetolerance="10"
     inkscape:pageopacity="0"
     inkscape:pageshadow="2"
     inkscape:window-width="1920"
     inkscape:window-height="984"
     id="namedview3109"
     showgrid="false"
     inkscape:zoom="2.5078125"
     inkscape:cx="63.607079"
     inkscape:cy="68.186916"
     inkscape:window-x="0"
     inkscape:window-y="24"
     inkscape:window-maximized="1"
     inkscape:current-layer="svg559"
     showguides="true"
     inkscape:guide-bbox="true"
     showborder="false" />
  <metadata
     id="metadata3111">
    <rdf:RDF>
      <cc:Work
         rdf:about="">
        <dc:format>image/svg+xml</dc:format>
        <dc:type
           rdf:resource="http://purl.org/dc/dcmitype/StillImage" />
      </cc:Work>
    </rdf:RDF>
  </metadata>
  <defs
     id="defs561">
    <linearGradient
       id="linearGradient3107">
      <stop
         id="stop3109"
         style="stop-color:#86d7d1;stop-opacity:1"
         offset="0" />
      <stop
         id="stop3115"
         style="stop-color:#d8f2f0;stop-opacity:1"
         offset="0.5" />
      <stop
         id="stop3111"
         style="stop-color:#86d7d1;stop-opacity:1"
         offset="1" />
    </linearGradient>
    <linearGradient
       id="linearGradient2371">
      <stop
         id="stop2373"
         style="stop-color:#d3f1ef;stop-opacity:1"
         offset="0" />
      <stop
         id="stop2379"
         style="stop-color:#ffffff;stop-opacity:1"
         offset="0.5" />
      <stop
         id="stop2375"
         style="stop-color:#d3f1ef;stop-opacity:1"
         offset="1" />
    </linearGradient>
    <linearGradient
       x1="110"
       y1="248"
       x2="122.95919"
       y2="214"
       id="linearGradient5276"
       xlink:href="#linearGradient3107"
       gradientUnits="userSpaceOnUse" />
    <linearGradient
       x1="110"
       y1="248"
       x2="122.95919"
       y2="214"
       id="linearGradient5296"
       xlink:href="#linearGradient3107"
       gradientUnits="userSpaceOnUse" />
    <linearGradient
       x1="146.46875"
       y1="227.41064"
       x2="126.68735"
       y2="228.16063"
       id="linearGradient1467"
       xlink:href="#linearGradient3107"
       gradientUnits="userSpaceOnUse"
       gradientTransform="matrix(0.558233, 0, 0, 0.558233, -26.2358, -92.064)" />
    <linearGradient
       x1="120"
       y1="204.75"
       x2="127.25"
       y2="193"
       id="linearGradient1470"
       xlink:href="#linearGradient3107"
       gradientUnits="userSpaceOnUse"
       gradientTransform="matrix(0.558233, 0, 0, 0.558233, -26.2358, -92.064)" />
    <linearGradient
       x1="79.170479"
       y1="230.16064"
       x2="141.18735"
       y2="230.16063"
       id="linearGradient1474"
       xlink:href="#linearGradient3107"
       gradientUnits="userSpaceOnUse"
       gradientTransform="matrix(0.558233, 0, 0, 0.558233, -26.2358, -92.064)" />
    <linearGradient
       x1="72.631599"
       y1="346"
       x2="148.6842"
       y2="345"
       id="linearGradient1478"
       xlink:href="#linearGradient2371"
       gradientUnits="userSpaceOnUse"
       gradientTransform="matrix(0.558233, 0, 0, 0.558233, -26.2358, -92.064)" />
    <radialGradient
       cx="137.78444"
       cy="222.34712"
       r="3.446095"
       fx="137.78444"
       fy="222.34712"
       id="radialGradient1498"
       xlink:href="#linearGradient3107"
       gradientUnits="userSpaceOnUse"
       gradientTransform="matrix(1.52431e-05, -1.83333, 0.99999, 1.17889e-05, -83.9288, 476.915)" />
    <linearGradient
       x1="146.46875"
       y1="227.41064"
       x2="126.68735"
       y2="228.16063"
       id="linearGradient2801"
       xlink:href="#linearGradient3107"
       gradientUnits="userSpaceOnUse"
       gradientTransform="matrix(0.558233, 0, 0, 0.558233, -26.2358, -92.064)" />
    <linearGradient
       x1="120"
       y1="204.75"
       x2="127.25"
       y2="193"
       id="linearGradient2804"
       xlink:href="#linearGradient3107"
       gradientUnits="userSpaceOnUse"
       gradientTransform="matrix(0.558233, 0, 0, 0.558233, -26.2358, -92.064)" />
    <linearGradient
       x1="79.170479"
       y1="230.16064"
       x2="141.18735"
       y2="230.16063"
       id="linearGradient2808"
       xlink:href="#linearGradient3107"
       gradientUnits="userSpaceOnUse"
       gradientTransform="matrix(0.558233, 0, 0, 0.558233, -26.2358, -92.064)" />
    <linearGradient
       x1="72.631599"
       y1="346"
       x2="148.6842"
       y2="345"
       id="linearGradient2812"
       xlink:href="#linearGradient2371"
       gradientUnits="userSpaceOnUse"
       gradientTransform="matrix(0.558233, 0, 0, 0.558233, -26.2358, -92.064)" />
    <linearGradient
       x1="110"
       y1="248"
       x2="122.95919"
       y2="214"
       id="linearGradient5296-350"
       xlink:href="#linearGradient3107-471"
       gradientUnits="userSpaceOnUse" />
    <linearGradient
       id="linearGradient3107-471">
      <stop
         id="stop5961"
         style="stop-color:#bebebe;stop-opacity:1"
         offset="0" />
      <stop
         id="stop5963"
         style="stop-color:#eaeaea;stop-opacity:1"
         offset="0.5" />
      <stop
         id="stop5965"
         style="stop-color:#bebebe;stop-opacity:1"
         offset="1" />
    </linearGradient>
    <linearGradient
       x1="72.631599"
       y1="346"
       x2="148.6842"
       y2="345"
       id="linearGradient2812-951"
       xlink:href="#linearGradient2371-854"
       gradientUnits="userSpaceOnUse"
       gradientTransform="matrix(0.558233, 0, 0, 0.558233, -26.2358, -92.064)" />
    <linearGradient
       id="linearGradient2371-854">
      <stop
         id="stop5969"
         style="stop-color:#e8e8e8;stop-opacity:1"
         offset="0" />
      <stop
         id="stop5971"
         style="stop-color:#ffffff;stop-opacity:1"
         offset="0.5" />
      <stop
         id="stop5973"
         style="stop-color:#e8e8e8;stop-opacity:1"
         offset="1" />
    </linearGradient>
    <linearGradient
       x1="120"
       y1="204.75"
       x2="127.25"
       y2="193"
       id="linearGradient2804-735"
       xlink:href="#linearGradient3107-793"
       gradientUnits="userSpaceOnUse"
       gradientTransform="matrix(0.558233, 0, 0, 0.558233, -26.2358, -92.064)" />
    <linearGradient
       id="linearGradient3107-793">
      <stop
         id="stop5977"
         style="stop-color:#bebebe;stop-opacity:1"
         offset="0" />
      <stop
         id="stop5979"
         style="stop-color:#eaeaea;stop-opacity:1"
         offset="0.5" />
      <stop
         id="stop5981"
         style="stop-color:#bebebe;stop-opacity:1"
         offset="1" />
    </linearGradient>
    <linearGradient
       x1="110"
       y1="248"
       x2="122.95919"
       y2="214"
       id="linearGradient5276-35"
       xlink:href="#linearGradient3107-997"
       gradientUnits="userSpaceOnUse" />
    <linearGradient
       id="linearGradient3107-997">
      <stop
         id="stop5985"
         style="stop-color:#bebebe;stop-opacity:1"
         offset="0" />
      <stop
         id="stop5987"
         style="stop-color:#eaeaea;stop-opacity:1"
         offset="0.5" />
      <stop
         id="stop5989"
         style="stop-color:#bebebe;stop-opacity:1"
         offset="1" />
    </linearGradient>
    <linearGradient
       x1="79.170479"
       y1="230.16064"
       x2="141.18735"
       y2="230.16063"
       id="linearGradient2808-662"
       xlink:href="#linearGradient3107-269"
       gradientUnits="userSpaceOnUse"
       gradientTransform="matrix(0.558233, 0, 0, 0.558233, -26.2358, -92.064)" />
    <linearGradient
       id="linearGradient3107-269">
      <stop
         id="stop5993"
         style="stop-color:#bebebe;stop-opacity:1"
         offset="0" />
      <stop
         id="stop5995"
         style="stop-color:#eaeaea;stop-opacity:1"
         offset="0.5" />
      <stop
         id="stop5997"
         style="stop-color:#bebebe;stop-opacity:1"
         offset="1" />
    </linearGradient>
    <linearGradient
       x1="72.631599"
       y1="346"
       x2="148.6842"
       y2="345"
       id="linearGradient1478-793"
       xlink:href="#linearGradient2371-929"
       gradientUnits="userSpaceOnUse"
       gradientTransform="matrix(0.558233, 0, 0, 0.558233, -26.2358, -92.064)" />
    <linearGradient
       id="linearGradient2371-929">
      <stop
         id="stop6001"
         style="stop-color:#e8e8e8;stop-opacity:1"
         offset="0" />
      <stop
         id="stop6003"
         style="stop-color:#ffffff;stop-opacity:1"
         offset="0.5" />
      <stop
         id="stop6005"
         style="stop-color:#e8e8e8;stop-opacity:1"
         offset="1" />
    </linearGradient>
    <linearGradient
       x1="146.46875"
       y1="227.41064"
       x2="126.68735"
       y2="228.16063"
       id="linearGradient2801-653"
       xlink:href="#linearGradient3107-635"
       gradientUnits="userSpaceOnUse"
       gradientTransform="matrix(0.558233, 0, 0, 0.558233, -26.2358, -92.064)" />
    <linearGradient
       id="linearGradient3107-635">
      <stop
         id="stop6009"
         style="stop-color:#bebebe;stop-opacity:1"
         offset="0" />
      <stop
         id="stop6011"
         style="stop-color:#eaeaea;stop-opacity:1"
         offset="0.5" />
      <stop
         id="stop6013"
         style="stop-color:#bebebe;stop-opacity:1"
         offset="1" />
    </linearGradient>
    <linearGradient
       x1="146.46875"
       y1="227.41064"
       x2="126.68735"
       y2="228.16063"
       id="linearGradient1467-379"
       xlink:href="#linearGradient3107-877"
       gradientUnits="userSpaceOnUse"
       gradientTransform="matrix(0.558233, 0, 0, 0.558233, -26.2358, -92.064)" />
    <linearGradient
       id="linearGradient3107-877">
      <stop
         id="stop6017"
         style="stop-color:#bebebe;stop-opacity:1"
         offset="0" />
      <stop
         id="stop6019"
         style="stop-color:#eaeaea;stop-opacity:1"
         offset="0.5" />
      <stop
         id="stop6021"
         style="stop-color:#bebebe;stop-opacity:1"
         offset="1" />
    </linearGradient>
    <linearGradient
       x1="79.170479"
       y1="230.16064"
       x2="141.18735"
       y2="230.16063"
       id="linearGradient1474-175"
       xlink:href="#linearGradient3107-837"
       gradientUnits="userSpaceOnUse"
       gradientTransform="matrix(0.558233, 0, 0, 0.558233, -26.2358, -92.064)" />
    <linearGradient
       id="linearGradient3107-837">
      <stop
         id="stop6025"
         style="stop-color:#bebebe;stop-opacity:1"
         offset="0" />
      <stop
         id="stop6027"
         style="stop-color:#eaeaea;stop-opacity:1"
         offset="0.5" />
      <stop
         id="stop6029"
         style="stop-color:#bebebe;stop-opacity:1"
         offset="1" />
    </linearGradient>
    <radialGradient
       cx="137.78444"
       cy="222.34712"
       r="3.446095"
       fx="137.78444"
       fy="222.34712"
       id="radialGradient1498-665"
       xlink:href="#linearGradient3107-677"
       gradientUnits="userSpaceOnUse"
       gradientTransform="matrix(1.52431e-05, -1.83333, 0.99999, 1.17889e-05, -83.9288, 476.915)" />
    <linearGradient
       id="linearGradient3107-677">
      <stop
         id="stop6033"
         style="stop-color:#bebebe;stop-opacity:1"
         offset="0" />
      <stop
         id="stop6035"
         style="stop-color:#eaeaea;stop-opacity:1"
         offset="0.5" />
      <stop
         id="stop6037"
         style="stop-color:#bebebe;stop-opacity:1"
         offset="1" />
    </linearGradient>
    <linearGradient
       x1="120"
       y1="204.75"
       x2="127.25"
       y2="193"
       id="linearGradient1470-621"
       xlink:href="#linearGradient3107-434"
       gradientUnits="userSpaceOnUse"
       gradientTransform="matrix(0.558233, 0, 0, 0.558233, -26.2358, -92.064)" />
    <linearGradient
       id="linearGradient3107-434">
      <stop
         id="stop6041"
         style="stop-color:#bebebe;stop-opacity:1"
         offset="0" />
      <stop
         id="stop6043"
         style="stop-color:#eaeaea;stop-opacity:1"
         offset="0.5" />
      <stop
         id="stop6045"
         style="stop-color:#bebebe;stop-opacity:1"
         offset="1" />
    </linearGradient>
    <linearGradient
       x1="110"
       y1="248"
       x2="122.95919"
       y2="214"
       id="linearGradient5296-350-898"
       xlink:href="#linearGradient3107-471-317"
       gradientUnits="userSpaceOnUse"
       gradientTransform="matrix(0.62302133,-0.38919503,0.29575726,0.47344664,-124.20154,-43.465187)" />
    <linearGradient
       id="linearGradient3107-471-317">
      <stop
         id="stop6231"
         style="stop-color:#414141;stop-opacity:1"
         offset="0" />
      <stop
         id="stop6233"
         style="stop-color:#151515;stop-opacity:1"
         offset="0.5" />
      <stop
         id="stop6235"
         style="stop-color:#414141;stop-opacity:1"
         offset="1" />
    </linearGradient>
    <linearGradient
       x1="72.631599"
       y1="346"
       x2="148.6842"
       y2="345"
       id="linearGradient2812-951-14"
       xlink:href="#linearGradient2371-854-293"
       gradientUnits="userSpaceOnUse"
       gradientTransform="matrix(0.47344664,-0.29575726,0.29575726,0.47344664,-98.298305,-35.292706)" />
    <linearGradient
       id="linearGradient2371-854-293">
      <stop
         id="stop6239"
         style="stop-color:#171717;stop-opacity:1"
         offset="0" />
      <stop
         id="stop6241"
         style="stop-color:#000000;stop-opacity:1"
         offset="0.5" />
      <stop
         id="stop6243"
         style="stop-color:#171717;stop-opacity:1"
         offset="1" />
    </linearGradient>
    <linearGradient
       x1="120"
       y1="204.75"
       x2="127.25"
       y2="193"
       id="linearGradient2804-735-47"
       xlink:href="#linearGradient3107-793-694"
       gradientUnits="userSpaceOnUse"
       gradientTransform="matrix(0.47344664,-0.29575726,0.29575726,0.47344664,-98.298305,-35.292706)" />
    <linearGradient
       id="linearGradient3107-793-694">
      <stop
         id="stop6247"
         style="stop-color:#414141;stop-opacity:1"
         offset="0" />
      <stop
         id="stop6249"
         style="stop-color:#151515;stop-opacity:1"
         offset="0.5" />
      <stop
         id="stop6251"
         style="stop-color:#414141;stop-opacity:1"
         offset="1" />
    </linearGradient>
    <linearGradient
       x1="110"
       y1="248"
       x2="122.95919"
       y2="214"
       id="linearGradient5276-35-816"
       xlink:href="#linearGradient3107-997-22"
       gradientUnits="userSpaceOnUse"
       gradientTransform="matrix(0.62302217,-0.38919556,0.29575726,0.47344664,-124.20162,-43.465134)" />
    <linearGradient
       id="linearGradient3107-997-22">
      <stop
         id="stop6255"
         style="stop-color:#414141;stop-opacity:1"
         offset="0" />
      <stop
         id="stop6257"
         style="stop-color:#151515;stop-opacity:1"
         offset="0.5" />
      <stop
         id="stop6259"
         style="stop-color:#414141;stop-opacity:1"
         offset="1" />
    </linearGradient>
    <linearGradient
       x1="79.170479"
       y1="230.16064"
       x2="141.18735"
       y2="230.16063"
       id="linearGradient2808-662-155"
       xlink:href="#linearGradient3107-269-13"
       gradientUnits="userSpaceOnUse"
       gradientTransform="matrix(0.47344664,-0.29575726,0.29575726,0.47344664,-98.298305,-35.292706)" />
    <linearGradient
       id="linearGradient3107-269-13">
      <stop
         id="stop6263"
         style="stop-color:#414141;stop-opacity:1"
         offset="0" />
      <stop
         id="stop6265"
         style="stop-color:#151515;stop-opacity:1"
         offset="0.5" />
      <stop
         id="stop6267"
         style="stop-color:#414141;stop-opacity:1"
         offset="1" />
    </linearGradient>
    <linearGradient
       x1="72.631599"
       y1="346"
       x2="148.6842"
       y2="345"
       id="linearGradient1478-793-297"
       xlink:href="#linearGradient2371-929-277"
       gradientUnits="userSpaceOnUse"
       gradientTransform="matrix(0.47344664,-0.29575726,0.29575726,0.47344664,-98.298305,-35.292706)" />
    <linearGradient
       id="linearGradient2371-929-277">
      <stop
         id="stop6271"
         style="stop-color:#171717;stop-opacity:1"
         offset="0" />
      <stop
         id="stop6273"
         style="stop-color:#000000;stop-opacity:1"
         offset="0.5" />
      <stop
         id="stop6275"
         style="stop-color:#171717;stop-opacity:1"
         offset="1" />
    </linearGradient>
    <linearGradient
       x1="146.46875"
       y1="227.41064"
       x2="126.68735"
       y2="228.16063"
       id="linearGradient2801-653-496"
       xlink:href="#linearGradient3107-635-508"
       gradientUnits="userSpaceOnUse"
       gradientTransform="matrix(0.47344664,-0.29575726,0.29575726,0.47344664,-98.298305,-35.292706)" />
    <linearGradient
       id="linearGradient3107-635-508">
      <stop
         id="stop6279"
         style="stop-color:#414141;stop-opacity:1"
         offset="0" />
      <stop
         id="stop6281"
         style="stop-color:#151515;stop-opacity:1"
         offset="0.5" />
      <stop
         id="stop6283"
         style="stop-color:#414141;stop-opacity:1"
         offset="1" />
    </linearGradient>
    <linearGradient
       x1="146.46875"
       y1="227.41064"
       x2="126.68735"
       y2="228.16063"
       id="linearGradient1467-379-46"
       xlink:href="#linearGradient3107-877-973"
       gradientUnits="userSpaceOnUse"
       gradientTransform="matrix(0.47344664,-0.29575726,0.29575726,0.47344664,-98.298305,-35.292706)" />
    <linearGradient
       id="linearGradient3107-877-973">
      <stop
         id="stop6287"
         style="stop-color:#414141;stop-opacity:1"
         offset="0" />
      <stop
         id="stop6289"
         style="stop-color:#151515;stop-opacity:1"
         offset="0.5" />
      <stop
         id="stop6291"
         style="stop-color:#414141;stop-opacity:1"
         offset="1" />
    </linearGradient>
    <linearGradient
       x1="79.170479"
       y1="230.16064"
       x2="141.18735"
       y2="230.16063"
       id="linearGradient1474-175-350"
       xlink:href="#linearGradient3107-837-835"
       gradientUnits="userSpaceOnUse"
       gradientTransform="matrix(0.47344664,-0.29575726,0.29575726,0.47344664,-98.298305,-35.292706)" />
    <linearGradient
       id="linearGradient3107-837-835">
      <stop
         id="stop6295"
         style="stop-color:#414141;stop-opacity:1"
         offset="0" />
      <stop
         id="stop6297"
         style="stop-color:#151515;stop-opacity:1"
         offset="0.5" />
      <stop
         id="stop6299"
         style="stop-color:#414141;stop-opacity:1"
         offset="1" />
    </linearGradient>
    <radialGradient
       cx="137.78444"
       cy="222.34712"
       r="3.446095"
       fx="137.78444"
       fy="222.34712"
       id="radialGradient1498-665-865"
       xlink:href="#linearGradient3107-677-130"
       gradientUnits="userSpaceOnUse"
       gradientTransform="matrix(-0.75743885,-1.2125304,0.77725775,-0.4855341,-35.823348,304.36172)" />
    <linearGradient
       id="linearGradient3107-677-130">
      <stop
         id="stop6303"
         style="stop-color:#414141;stop-opacity:1"
         offset="0" />
      <stop
         id="stop6305"
         style="stop-color:#151515;stop-opacity:1"
         offset="0.5" />
      <stop
         id="stop6307"
         style="stop-color:#414141;stop-opacity:1"
         offset="1" />
    </linearGradient>
    <linearGradient
       x1="120"
       y1="204.75"
       x2="127.25"
       y2="193"
       id="linearGradient1470-621-263"
       xlink:href="#linearGradient3107-434-828"
       gradientUnits="userSpaceOnUse"
       gradientTransform="matrix(0.47344664,-0.29575726,0.29575726,0.47344664,-98.298305,-35.292706)" />
    <linearGradient
       id="linearGradient3107-434-828">
      <stop
         id="stop6311"
         style="stop-color:#414141;stop-opacity:1"
         offset="0" />
      <stop
         id="stop6313"
         style="stop-color:#151515;stop-opacity:1"
         offset="0.5" />
      <stop
         id="stop6315"
         style="stop-color:#414141;stop-opacity:1"
         offset="1" />
    </linearGradient>
    <linearGradient
       inkscape:collect="always"
       xlink:href="#linearGradient2371-854-293"
       id="linearGradient9154"
       gradientUnits="userSpaceOnUse"
       gradientTransform="matrix(0.47344664,-0.29575726,0.29575726,0.47344664,-34.098928,-78.75688)"
       x1="72.631599"
       y1="346"
       x2="148.6842"
       y2="345" />
    <linearGradient
       inkscape:collect="always"
       xlink:href="#linearGradient3107-471-317"
       id="linearGradient9156"
       gradientUnits="userSpaceOnUse"
       gradientTransform="matrix(0.62302133,-0.38919503,0.29575726,0.47344664,-60.002163,-86.929361)"
       x1="110"
       y1="248"
       x2="122.95919"
       y2="214" />
    <linearGradient
       inkscape:collect="always"
       xlink:href="#linearGradient3107-269-13"
       id="linearGradient9158"
       gradientUnits="userSpaceOnUse"
       gradientTransform="matrix(0.47344664,-0.29575726,0.29575726,0.47344664,-34.098928,-78.75688)"
       x1="79.170479"
       y1="230.16064"
       x2="141.18735"
       y2="230.16063" />
    <linearGradient
       inkscape:collect="always"
       xlink:href="#linearGradient3107-793-694"
       id="linearGradient9160"
       gradientUnits="userSpaceOnUse"
       gradientTransform="matrix(0.47344664,-0.29575726,0.29575726,0.47344664,-34.098928,-78.75688)"
       x1="120"
       y1="204.75"
       x2="127.25"
       y2="193" />
    <linearGradient
       inkscape:collect="always"
       xlink:href="#linearGradient3107-635-508"
       id="linearGradient9162"
       gradientUnits="userSpaceOnUse"
       gradientTransform="matrix(0.47344664,-0.29575726,0.29575726,0.47344664,-34.098928,-78.75688)"
       x1="146.46875"
       y1="227.41064"
       x2="126.68735"
       y2="228.16063" />
    <linearGradient
       inkscape:collect="always"
       xlink:href="#linearGradient2371-929-277"
       id="linearGradient9164"
       gradientUnits="userSpaceOnUse"
       gradientTransform="matrix(0.47344664,-0.29575726,0.29575726,0.47344664,-34.098928,-78.75688)"
       x1="72.631599"
       y1="346"
       x2="148.6842"
       y2="345" />
    <linearGradient
       inkscape:collect="always"
       xlink:href="#linearGradient3107-997-22"
       id="linearGradient9166"
       gradientUnits="userSpaceOnUse"
       gradientTransform="matrix(0.62302217,-0.38919556,0.29575726,0.47344664,-60.002243,-86.929308)"
       x1="110"
       y1="248"
       x2="122.95919"
       y2="214" />
    <linearGradient
       inkscape:collect="always"
       xlink:href="#linearGradient3107-837-835"
       id="linearGradient9168"
       gradientUnits="userSpaceOnUse"
       gradientTransform="matrix(0.47344664,-0.29575726,0.29575726,0.47344664,-34.098928,-78.75688)"
       x1="79.170479"
       y1="230.16064"
       x2="141.18735"
       y2="230.16063" />
    <linearGradient
       inkscape:collect="always"
       xlink:href="#linearGradient3107-434-828"
       id="linearGradient9170"
       gradientUnits="userSpaceOnUse"
       gradientTransform="matrix(0.47344664,-0.29575726,0.29575726,0.47344664,-34.098928,-78.75688)"
       x1="120"
       y1="204.75"
       x2="127.25"
       y2="193" />
    <linearGradient
       inkscape:collect="always"
       xlink:href="#linearGradient3107-877-973"
       id="linearGradient9172"
       gradientUnits="userSpaceOnUse"
       gradientTransform="matrix(0.47344664,-0.29575726,0.29575726,0.47344664,-34.098928,-78.75688)"
       x1="146.46875"
       y1="227.41064"
       x2="126.68735"
       y2="228.16063" />
    <radialGradient
       inkscape:collect="always"
       xlink:href="#linearGradient3107-677-130"
       id="radialGradient9174"
       gradientUnits="userSpaceOnUse"
       gradientTransform="matrix(-0.75743885,-1.2125304,0.77725775,-0.4855341,28.376028,260.89754)"
       cx="137.78444"
       cy="222.34712"
       fx="137.78444"
       fy="222.34712"
       r="3.446095" />
  </defs>
  <path
     d="M 68.313618,3.3881649 108.53661,67.776906 c 2.77538,4.44283 12.56314,3.34139 21.84768,-2.45857 9.28453,-5.79995 14.56732,-14.112927 11.79193,-18.555752 l -40.22298,-64.388743 -0.0973,0.06081 c 0.008,0.01651 7.4e-4,0.03996 0.008,0.05652 0.25073,0.555467 0.40634,1.153866 0.4468,1.798342 0.0416,0.663363 -0.0163,1.353611 -0.18344,2.089199 -0.16477,0.725302 -0.40855,1.47136 -0.76254,2.245272 -0.028,0.06136 -0.0711,0.124482 -0.10028,0.186061 -0.3456,0.728736 -0.74186,1.4635809 -1.24137,2.2152889 -0.0487,0.07326 -0.108602,0.149148 -0.158692,0.222543 -0.49224,0.721248 -1.0302,1.438789 -1.65254,2.163614 -0.26248,0.305697 -0.58104,0.606487 -0.86541,0.910851 -0.47394,0.507269 -0.93257,1.012159 -1.46457,1.511396 -0.68871,0.648191 -1.44064,1.277599 -2.22183,1.902176 -0.17953,0.143553 -0.3249,0.299521 -0.50909,0.44144 -0.006,0.0044 -0.0135,0.0078 -0.0195,0.01216 -1.02071,0.785518 -2.11187,1.54555603 -3.26618,2.26664103 -1.15432,0.72108897 -2.31594,1.36834297 -3.46953,1.94111897 -0.007,0.0036 -0.0127,0.0086 -0.0195,0.01216 -0.2083,0.103406 -0.41221,0.165348 -0.62,0.263899 -0.90393,0.428095 -1.79937,0.827779 -2.68395,1.162414 -0.68199,0.259123 -1.33689,0.449847 -2.00063,0.653274 -0.39731,0.120998 -0.80934,0.27759 -1.19813,0.378222 -0.92436,0.241383 -1.80514,0.41011 -2.66921,0.536142 -0.0882,0.01256 -0.18218,0.03365 -0.2696,0.045 -0.89464,0.119203 -1.72883,0.153007 -2.5353,0.143959 -0.0678,-0.001 -0.14406,0.01045 -0.2112,0.0085 -0.85076,-0.02132 -1.62815,-0.12946 -2.35223,-0.299502 -0.73436,-0.172452 -1.3801,-0.423104 -1.95798,-0.751481 -0.56143,-0.319026 -1.03096,-0.72133 -1.42017,-1.19029 -0.0118,-0.01415 -0.0356,-0.01791 -0.0472,-0.03221 l -0.0973,0.06081 z"
     id="rect1628"
     style="fill:url(#linearGradient9154);fill-opacity:1;stroke:none"
     inkscape:connector-curvature="0" />
  <path
     d="M 94.294708,-31.2721 A 9.489961,20.568632 58.007402 1 1 59.405518,-9.4771791 9.489961,20.568632 58.007402 0 1 94.294708,-31.2721 z"
     id="path1636"
     style="fill:url(#linearGradient9156);fill-opacity:1;stroke:none"
     inkscape:connector-curvature="0" />
  <path
     d="m 59.405768,-9.4768841 13.07213,21.6088211 c 2.77539,4.442823 12.84306,3.166529 22.47249,-2.8488751 9.629422,-6.015404 15.192122,-14.503239 12.416732,-18.946062 l -13.072132,-21.6088189 -0.10095,0.06306 c 0.008,0.01651 1.2e-4,0.04034 0.007,0.05696 0.24815,0.557077 0.39794,1.159116 0.42872,1.809637 0.0317,0.669582 -0.0393,1.367997 -0.22321,2.114045 -0.18128,0.735616 -0.44403,1.493522 -0.82039,2.281412 -0.0298,0.06247 -0.0751,0.126968 -0.10607,0.189674 -0.367,0.742104 -0.78611,1.491222 -1.31152,2.259109 -0.0512,0.07484 -0.11398,0.152513 -0.16663,0.227508 -0.51745,0.736989 -1.08175,1.470988 -1.73282,2.21376 -0.2746,0.313268 -0.60669,0.622511 -0.90373,0.934793 -0.49507,0.520465 -0.97439,1.038279 -1.52893,1.551601 -0.71794,0.666445 -1.50047,1.314968 -2.31295,1.959097 -0.18673,0.148046 -0.33859,0.308069 -0.53007,0.454542 -0.006,0.0046 -0.014,0.0081 -0.0202,0.01261 -1.0611,0.810749 -2.19411,1.596928 -3.3913,2.344801 -1.19719,0.747872 -2.40065,1.421262 -3.59462,2.019266 -0.007,0.0038 -0.0131,0.0089 -0.0202,0.01261 -0.2156,0.10796 -0.42599,0.173955 -0.64098,0.277001 -0.93523,0.447647 -1.86126,0.8664419 -2.77507,1.2193319 -0.70453,0.273208 -1.38011,0.476851 -2.06498,0.693479 -0.40995,0.12889 -0.8356,0.293994 -1.23646,0.402165 -0.95308,0.259328 -1.86021,0.444515 -2.74948,0.586285 -0.0907,0.01416 -0.18761,0.03704 -0.27755,0.04997 -0.92053,0.135378 -1.77758,0.183459 -2.60545,0.187778 -0.0696,1.2e-4 -0.14809,0.01297 -0.21698,0.01213 -0.87314,-0.0073 -1.6695,-0.103635 -2.41009,-0.263363 -0.7511,-0.161993 -1.40991,-0.40448 -1.99775,-0.726635 -0.57111,-0.312982 -1.04646,-0.711644 -1.43825,-1.178996 -0.0119,-0.0141 -0.0362,-0.01751 -0.0479,-0.03176 l -0.10095,0.06306 z"
     id="path1641"
     style="fill:url(#linearGradient9158);fill-opacity:1;stroke:none"
     inkscape:connector-curvature="0" />
  <path
     d="m 76.046218,-24.8908 -5.27978,10.415045 16.01776,-2.148828 0.27727,0.443856 c 3.95395,-3.40087 6.63641,-7.060749 7.53939,-10.22223 l -0.37524,-0.567773 -18.1794,2.079927 z"
     id="path3125"
     style="fill:url(#linearGradient9160);fill-opacity:1;stroke:none"
     inkscape:connector-curvature="0" />
  <path
     d="m 94.281068,-26.881957 c -0.17529,0.628814 -0.38258,1.272456 -0.70126,1.939595 -0.0298,0.06247 -0.0615,0.118489 -0.0925,0.181195 -0.367,0.742107 -0.79538,1.49702 -1.3208,2.264906 -0.0512,0.07484 -0.11382,0.152413 -0.16647,0.227407 -0.51744,0.736989 -1.07467,1.46657 -1.72574,2.209341 -0.2746,0.31327 -0.61665,0.628729 -0.91369,0.941011 -0.49506,0.520465 -0.96765,1.03407 -1.52219,1.547392 -0.3505,0.325352 -0.75463,0.635515 -1.13189,0.953906 l 0.0777,-0.0074 10.32944,16.00848793 C 101.56313,-3.8620051 104.27159,-7.0072211 103.89891,-12.177294 l -9.617812,-14.704663 z"
     id="path3130"
     style="fill:url(#linearGradient9162);fill-opacity:1;stroke:none"
     inkscape:connector-curvature="0" />
  <path
     d="m 98.856308,-15.397963 a 3.1260569,2.0038813 58.007402 0 1 -3.39905,2.123351 3.1260569,2.0038813 58.007402 0 1 3.39905,-2.123351 z"
     id="path3137"
     style="fill:#ffffff;fill-opacity:1;stroke:none"
     inkscape:connector-curvature="0" />
  <path
     d="M 68.313678,3.3882299 108.5367,67.777026 c 2.77539,4.44283 12.56315,3.34138 21.8477,-2.45858 9.28454,-5.79996 14.56733,-14.112935 11.79194,-18.555759 l -40.22302,-64.388798 -0.0973,0.06081 c 0.008,0.0165 7.7e-4,0.03995 0.008,0.05655 0.25074,0.555466 0.40635,1.153867 0.4468,1.798344 0.0416,0.663364 -0.0163,1.353611 -0.18343,2.089199 -0.16477,0.725304 -0.40855,1.471361 -0.76254,2.245275 -0.0281,0.06135 -0.0711,0.12449 -0.10029,0.186061 -0.3456,0.728736 -0.74185,1.4635819 -1.24137,2.2152909 -0.0487,0.07327 -0.108592,0.149147 -0.158682,0.222542 -0.49225,0.721249 -1.0302,1.438791 -1.65255,2.163616 -0.26248,0.305698 -0.58104,0.606488 -0.86541,0.910853 -0.47394,0.507269 -0.93257,1.012158 -1.46457,1.511397 -0.68871,0.64819 -1.44064,1.277601 -2.22183,1.902177 -0.17954,0.143544 -0.32491,0.299522 -0.5091,0.44144 -0.006,0.0045 -0.0136,0.0076 -0.0195,0.01216 -1.02071,0.78549 -2.11187,1.54552703 -3.26618,2.26661403 -1.15432,0.72108897 -2.31594,1.36834297 -3.46953,1.94111897 -0.007,0.0034 -0.0126,0.0087 -0.0195,0.01216 -0.20831,0.103389 -0.41222,0.165349 -0.62001,0.2639 -0.90392,0.428095 -1.79936,0.827779 -2.68395,1.162415 -0.68199,0.259123 -1.33689,0.449847 -2.00063,0.653274 -0.39731,0.120997 -0.80934,0.277591 -1.19813,0.378224 -0.92436,0.241382 -1.80514,0.410108 -2.66921,0.536141 -0.0882,0.01258 -0.18218,0.03365 -0.2696,0.045 -0.89464,0.119203 -1.72883,0.153006 -2.53531,0.143959 -0.0678,-10e-4 -0.14406,0.01045 -0.21119,0.0085 -0.8508,-0.02131 -1.62819,-0.12945 -2.35228,-0.299492 -0.73435,-0.172454 -1.38009,-0.423105 -1.95798,-0.751482 -0.56143,-0.319027 -1.03095,-0.721331 -1.42017,-1.19029 -0.0118,-0.01417 -0.0356,-0.01791 -0.0472,-0.03223 l -0.0973,0.0608 z"
     id="path5220"
     style="fill:url(#linearGradient9164);fill-opacity:1;stroke:none"
     inkscape:connector-curvature="0" />
  <path
     d="M 94.294738,-31.27212 A 9.489961,20.56866 58.007402 1 1 59.405498,-9.4771691 9.489961,20.56866 58.007402 0 1 94.294738,-31.27212 z"
     id="path5222"
     style="fill:url(#linearGradient9166);fill-opacity:1;stroke:none"
     inkscape:connector-curvature="0" />
  <path
     d="m 59.405828,-9.4768301 13.07214,21.6088381 c 2.77539,4.442827 12.84306,3.166532 22.4725,-2.8488771 9.629432,-6.015408 15.192132,-14.50325 12.416742,-18.946077 l -13.072142,-21.6088359 -0.10095,0.06306 c 0.008,0.01655 1.2e-4,0.04035 0.007,0.05699 0.24815,0.557076 0.39794,1.159116 0.42871,1.809639 0.0317,0.669583 -0.0393,1.367996 -0.2232,2.114045 -0.18128,0.735618 -0.44403,1.493524 -0.82039,2.281414 -0.0298,0.06245 -0.0751,0.126968 -0.10608,0.189674 -0.36699,0.742104 -0.7861,1.491225 -1.31151,2.25911 -0.0512,0.07485 -0.11398,0.152515 -0.16664,0.227508 -0.51744,0.73699 -1.08174,1.470991 -1.73281,2.213763 -0.2746,0.313269 -0.6067,0.622511 -0.90374,0.934794 -0.49506,0.520465 -0.97439,1.03828 -1.52893,1.551602 -0.71793,0.666445 -1.50046,1.314969 -2.31295,1.959099 -0.18673,0.148037 -0.33859,0.308069 -0.53007,0.454543 -0.006,0.0047 -0.0141,0.0079 -0.0202,0.01261 -1.06109,0.810712 -2.19411,1.596892 -3.3913,2.344765 -1.19719,0.747873 -2.40065,1.421264 -3.59462,2.019269 -0.007,0.0036 -0.013,0.009 -0.0202,0.01261 -0.21561,0.107943 -0.42599,0.173955 -0.64098,0.277001 -0.93523,0.447648 -1.86126,0.8664439 -2.77507,1.2193329 -0.70453,0.273208 -1.38012,0.476852 -2.06499,0.693479 -0.40994,0.128891 -0.83559,0.293995 -1.23646,0.402166 -0.95308,0.259328 -1.86021,0.444515 -2.74948,0.586285 -0.0907,0.01418 -0.18761,0.03704 -0.27755,0.04997 -0.92053,0.13538 -1.77758,0.183459 -2.60545,0.187778 -0.0696,1.12e-4 -0.14809,0.01297 -0.21698,0.01213 -0.87314,-0.0073 -1.66949,-0.103635 -2.41009,-0.263363 -0.7511,-0.161994 -1.40991,-0.40448 -1.99775,-0.726636 -0.57111,-0.312983 -1.04647,-0.711645 -1.43825,-1.178997 -0.0119,-0.01412 -0.0362,-0.0175 -0.0479,-0.03177 l -0.10095,0.06306 z"
     id="path5224"
     style="fill:url(#linearGradient9168);fill-opacity:1;stroke:none"
     inkscape:connector-curvature="0" />
  <path
     d="m 76.046288,-24.890757 -5.27979,10.415052 16.01777,-2.14883 0.27728,0.443857 c 3.95395,-3.400872 6.63641,-7.060754 7.53939,-10.222238 l -0.37525,-0.567773 -18.1794,2.07993 z"
     id="path5228"
     style="fill:url(#linearGradient9170);fill-opacity:1;stroke:none"
     inkscape:connector-curvature="0" />
  <path
     d="m 94.281148,-26.881916 c -0.17529,0.628814 -0.38258,1.272458 -0.70126,1.939597 -0.0298,0.06245 -0.0615,0.118489 -0.0925,0.181195 -0.367,0.742107 -0.79538,1.497021 -1.3208,2.264907 -0.0512,0.07485 -0.11382,0.152413 -0.16647,0.227407 -0.51745,0.73699 -1.07467,1.466572 -1.72575,2.209344 -0.27459,0.313269 -0.61664,0.628729 -0.91368,0.941011 -0.49507,0.520465 -0.96766,1.034072 -1.52219,1.547394 -0.3505,0.325352 -0.75464,0.635515 -1.13189,0.953906 l 0.0777,-0.0074 10.32944,16.00850093 C 101.56322,-3.8619451 104.27167,-7.0071631 103.89899,-12.177241 l -9.617812,-14.704675 z"
     id="path5230"
     style="fill:url(#linearGradient9172);fill-opacity:1;stroke:none"
     inkscape:connector-curvature="0" />
  <path
     d="m 99.511878,-15.801191 a 4.9267736,3.1581917 58.007402 0 1 -5.35703,3.34648 4.9267736,3.1581917 58.007402 0 1 5.35703,-3.34648 z"
     id="path5232"
     style="fill:url(#radialGradient9174);fill-opacity:1;stroke:none"
     inkscape:connector-curvature="0" />
  <path
     d="m 98.027808,-14.874661 a 2.3616425,1.5138776 58.007402 0 1 -2.56789,1.604133 2.3616425,1.5138776 58.007402 1 1 2.56789,-1.604133 z"
     id="path1488"
     style="fill:#ffffff;fill-opacity:1;stroke:none"
     inkscape:connector-curvature="0" />
  <path
     d="m 120.56556,12.514487 c -2.13784,0.470218 -4.40717,1.279256 -6.7051,2.714748 -5.96066,3.723567 -9.27872,9.21189 -7.38628,12.241328 1.40984,2.256861 10.1108,2.088247 10.45696,2.642391 2.56603,4.107694 6.78747,6.076913 9.45949,4.407727 2.67203,-1.669187 2.75386,-6.326614 0.18783,-10.434313 -0.0622,-0.09953 0.26569,-1.017965 0.34481,-1.394483 l 4.60272,7.368013 c -1.52015,1.984592 -2.65763,3.440108 -4.30085,5.560717 -3.27684,0.626483 -8.83066,1.647652 -9.36482,1.760157 -0.0752,-0.217209 -0.0475,-0.417921 -0.19861,-0.612856 -0.66769,-0.861277 -1.84725,-1.061472 -2.61345,-0.467645 -0.76621,0.593842 -0.84052,1.752271 -0.17283,2.613519 0.13175,0.169953 0.31338,0.173118 0.47693,0.291606 -0.57847,0.630558 -0.65904,1.610547 -0.0535,2.391608 0.66768,0.861252 1.79422,1.094596 2.56045,0.500758 0.52543,-0.407221 0.65032,-1.05209 0.5105,-1.71907 0.16087,-0.04017 4.52553,-0.943955 6.12509,-1.283881 -1.00704,1.288427 -3.71707,4.840942 -3.82373,4.967887 -0.53806,-0.418179 -1.17238,-0.588774 -1.7688,-0.295206 -0.86973,0.428127 -1.15414,1.542872 -0.673,2.520657 0.43634,0.886739 1.35238,1.244162 2.17277,1.000858 0.0348,0.198945 -0.0421,0.363572 0.0529,0.55651 0.48115,0.977783 1.57134,1.445605 2.44108,1.017481 0.86973,-0.428123 1.19062,-1.602472 0.70945,-2.580274 -0.10889,-0.22132 -0.31801,-0.310921 -0.4802,-0.473794 0.33539,-0.430692 3.70556,-4.947401 5.70581,-7.617462 2.62648,-0.546627 4.43342,-0.930472 6.88368,-1.426149 l -15.1493,-24.250832 z m -7.13407,10.167763 c 1.00201,-0.625949 2.23088,-0.43971 2.74597,0.384862 0.5151,0.824564 0.12693,1.9841 -0.87508,2.61005 -1.00201,0.625943 -2.24082,0.482761 -2.75592,-0.341802 -0.5151,-0.824566 -0.11698,-2.027166 0.88503,-2.65311 z m 7.42102,-4.635835 c 1.00199,-0.625933 2.28389,-0.472823 2.79898,0.351749 0.51511,0.824554 0.0739,2.017229 -0.92809,2.643163 -1.00201,0.625943 -2.21431,0.466199 -2.72942,-0.358359 -0.51509,-0.824566 -0.14348,-2.010609 0.85853,-2.636553 z m 12.2298,14.504825 1.07618,1.722737 c -0.72926,0.140077 -1.5582,0.27211 -2.74617,0.499574 0.72547,-0.967811 1.22425,-1.628379 1.66999,-2.222311 z"
     id="rect1506"
     style="fill:#ffffff;fill-opacity:1;stroke:none"
     inkscape:connector-curvature="0" />
  <text
     xml:space="preserve"
     style="font-size:40px;font-style:normal;font-variant:normal;font-weight:bold;font-stretch:normal;line-height:125%;letter-spacing:0px;word-spacing:0px;fill:#000000;fill-opacity:1;stroke:none;font-family:Purisa;-inkscape-font-specification:Purisa Bold"
     x="-220.90964"
     y="54.230534"
     id="text6476"
     sodipodi:linespacing="125%"><tspan
       sodipodi:role="line"
       id="tspan6478"
       x="-220.90964"
       y="54.230534"
       style="font-style:normal;font-variant:normal;font-weight:bold;font-stretch:normal;font-family:Purisa;-inkscape-font-specification:Purisa Bold">Flask-Attest</tspan></text>
</svg>
